<?xml version="1.0" standalone="no"?>
<!DOCTYPE svg PUBLIC "-//W3C//DTD SVG 20010904//EN"
 "http://www.w3.org/TR/2001/REC-SVG-20010904/DTD/svg10.dtd">
<svg version="1.0" xmlns="http://www.w3.org/2000/svg"
 width="1143.000000pt" height="600.000000pt" viewBox="0 0 1143.000000 600.000000"
 preserveAspectRatio="xMidYMid meet">

<g transform="translate(0.000000,600.000000) scale(0.100000,-0.100000)"
fill="#000000" stroke="none">
<path d="M3780 5485 l0 -145 1790 0 1790 0 0 -1065 0 -1065 -280 0 -280 0 0
-730 0 -730 150 0 150 0 0 585 0 585 280 0 280 0 0 1355 0 1355 -1940 0 -1940
0 0 -145z"/>
<path d="M3780 3390 l0 -1640 1365 0 1365 0 0 150 0 150 -1215 0 -1215 0 0
1490 0 1490 -150 0 -150 0 0 -1640z"/>
<path d="M4380 4880 l0 -150 1188 -2 1187 -3 0 -455 0 -455 -282 -3 -283 -2 0
-725 0 -725 150 0 150 0 2 578 3 577 278 3 277 2 0 755 0 755 -1335 0 -1335 0
0 -150z"/>
<path d="M4380 3390 l0 -1030 150 0 150 0 2 883 3 882 450 0 450 0 3 -882 2
-883 150 0 150 0 0 1030 0 1030 -755 0 -755 0 0 -1030z"/>
<path d="M3780 1000 l0 -140 101 0 c98 0 100 0 97 23 -3 20 -9 22 -70 25 l-68
3 0 114 0 115 -30 0 -30 0 0 -140z"/>
<path d="M4240 1000 l0 -140 25 0 c14 0 25 5 25 11 0 5 10 3 22 -5 35 -24 67
-19 99 15 24 26 29 40 29 81 0 42 -5 54 -30 80 -31 30 -55 34 -102 13 -16 -6
-18 -1 -18 39 0 42 -2 46 -25 46 l-25 0 0 -140z m130 10 c41 -41 12 -128 -39
-115 -33 8 -41 21 -41 65 0 39 8 54 30 63 25 9 29 8 50 -13z"/>
<path d="M5610 1120 c0 -15 7 -20 25 -20 18 0 25 5 25 20 0 15 -7 20 -25 20
-18 0 -25 -5 -25 -20z"/>
<path d="M6080 1000 l0 -140 25 0 c24 0 24 1 27 100 l3 99 55 -97 c51 -88 58
-97 88 -100 l32 -3 0 140 0 141 -30 0 -29 0 -3 -96 -3 -97 -53 97 c-49 87 -56
96 -83 96 l-29 0 0 -140z"/>
<path d="M6800 1120 c0 -15 7 -20 25 -20 18 0 25 5 25 20 0 15 -7 20 -25 20
-18 0 -25 -5 -25 -20z"/>
<path d="M7610 1000 l0 -140 25 0 25 0 0 140 0 140 -25 0 -25 0 0 -140z"/>
<path d="M5100 1090 c0 -16 -4 -30 -10 -30 -5 0 -10 -7 -10 -15 0 -8 5 -15 10
-15 6 0 10 -31 10 -74 0 -81 8 -95 56 -99 35 -2 46 27 14 36 -18 4 -20 13 -20
71 0 59 2 66 20 66 11 0 20 6 20 14 0 7 -9 16 -20 19 -14 3 -20 14 -20 31 0
21 -5 26 -25 26 -21 0 -25 -5 -25 -30z"/>
<path d="M4043 1055 c-11 -8 -23 -24 -26 -35 -4 -16 0 -20 18 -20 12 0 28 7
35 15 16 20 59 19 67 -1 8 -20 -13 -34 -53 -34 -43 0 -76 -29 -76 -65 0 -54
63 -82 110 -49 12 8 22 10 22 5 0 -6 12 -11 28 -11 l27 0 -5 92 c-5 86 -7 93
-30 105 -34 17 -91 16 -117 -2z m97 -111 c0 -32 -20 -54 -51 -54 -27 0 -30 3
-27 27 3 27 13 33 71 42 4 0 7 -6 7 -15z"/>
<path d="M4513 1055 c-28 -20 -47 -78 -39 -120 4 -20 19 -44 38 -60 27 -23 39
-26 77 -22 135 15 123 217 -13 217 -23 0 -51 -7 -63 -15z m99 -42 c25 -23 24
-84 -2 -108 -51 -46 -116 39 -76 99 19 30 51 34 78 9z"/>
<path d="M4727 1063 c-4 -3 -7 -51 -7 -105 0 -98 0 -98 25 -98 24 0 25 3 25
60 0 62 21 100 55 100 9 0 15 9 15 25 0 28 -20 33 -44 10 -8 -8 -17 -15 -20
-15 -3 0 -6 7 -6 15 0 15 -31 21 -43 8z"/>
<path d="M4896 1049 c-14 -11 -26 -27 -26 -35 0 -19 46 -18 54 2 8 21 71 16
71 -6 0 -10 -18 -19 -50 -27 -79 -20 -107 -69 -62 -111 27 -26 47 -27 87 -7
17 9 30 11 30 5 0 -5 12 -10 28 -10 l27 0 -3 72 c-1 40 -5 82 -7 94 -10 44
-103 59 -149 23z m99 -116 c-8 -32 -21 -43 -53 -43 -49 0 -35 55 16 63 15 2
31 5 36 6 4 0 5 -11 1 -26z"/>
<path d="M5239 1041 c-24 -25 -29 -38 -29 -78 1 -92 83 -142 160 -96 59 34 69
125 21 174 -24 24 -38 29 -76 29 -38 0 -52 -5 -76 -29z m117 -36 c29 -44 1
-115 -45 -115 -22 0 -51 41 -51 72 0 63 64 92 96 43z"/>
<path d="M5460 965 l0 -105 25 0 c24 0 25 2 25 64 0 69 14 96 51 96 14 0 19 7
19 25 0 28 -16 32 -47 10 -19 -13 -22 -13 -27 0 -3 8 -15 15 -26 15 -19 0 -20
-6 -20 -105z"/>
<path d="M5617 1063 c-4 -3 -7 -51 -7 -105 0 -98 0 -98 25 -98 l25 0 0 105 c0
95 -2 105 -18 105 -10 0 -22 -3 -25 -7z"/>
<path d="M5737 1044 c-47 -47 -45 -126 4 -169 10 -10 38 -20 63 -22 40 -5 48
-2 76 25 26 27 30 37 30 86 0 47 -4 59 -27 81 -40 36 -110 36 -146 -1z m107
-30 c9 -9 16 -32 16 -54 0 -62 -42 -89 -82 -53 -38 34 -15 123 32 123 10 0 26
-7 34 -16z"/>
<path d="M6383 1053 c-28 -19 -31 -53 -4 -53 10 0 24 7 31 15 16 20 59 19 67
0 8 -21 4 -24 -52 -34 -54 -10 -75 -31 -75 -72 0 -31 31 -59 65 -59 11 0 31 7
43 16 12 8 22 10 22 5 0 -6 12 -11 28 -11 l27 0 -5 92 c-5 86 -7 93 -30 105
-34 17 -90 15 -117 -4z m86 -149 c-19 -23 -63 -14 -67 13 -3 17 3 24 25 29 15
3 33 7 38 8 15 4 18 -33 4 -50z"/>
<path d="M6623 1060 c-26 -11 -53 -59 -53 -95 0 -37 25 -92 48 -104 38 -20 82
-13 113 18 16 16 29 34 29 40 0 19 -49 12 -60 -9 -12 -23 -42 -26 -59 -6 -17
20 -18 91 -2 110 17 20 45 21 61 1 14 -17 60 -20 60 -5 0 6 -11 22 -25 35 -25
26 -70 32 -112 15z"/>
<path d="M6800 966 l0 -106 25 0 26 0 -3 103 c-3 97 -4 102 -25 105 -23 3 -23
2 -23 -102z"/>
<path d="M6932 1045 c-77 -65 -31 -195 69 -195 76 0 125 76 99 155 -22 65
-112 87 -168 40z m99 -25 c25 -14 26 -85 2 -112 -36 -40 -83 -8 -83 58 0 57
33 79 81 54z"/>
<path d="M7150 965 l0 -105 25 0 c24 0 25 2 25 69 0 70 14 101 44 101 26 0 36
-26 36 -97 l0 -73 30 0 30 0 0 79 c0 64 -4 83 -21 105 -24 30 -72 35 -101 10
-16 -16 -18 -16 -24 0 -3 9 -15 16 -25 16 -17 0 -19 -9 -19 -105z"/>
<path d="M7406 1049 c-14 -11 -26 -27 -26 -35 0 -19 47 -18 58 2 6 10 19 14
38 12 36 -4 39 -30 4 -39 -14 -4 -38 -11 -55 -16 -16 -4 -36 -20 -44 -35 -14
-25 -14 -29 5 -55 25 -34 63 -40 98 -17 16 10 26 12 26 5 0 -6 12 -11 28 -11
l27 0 -5 90 c-3 49 -8 91 -10 93 -36 32 -107 35 -144 6z m104 -98 c0 -5 -4
-21 -10 -35 -7 -20 -16 -26 -40 -26 -56 0 -49 54 8 63 15 2 30 5 35 6 4 0 7
-3 7 -8z"/>
<path d="M4972 650 c-6 -11 -12 -22 -12 -25 0 -12 27 -2 55 20 l30 25 -30 0
c-19 0 -35 -7 -43 -20z"/>
<path d="M6410 651 c-21 -40 -2 -43 42 -6 l30 25 -31 0 c-20 0 -34 -7 -41 -19z"/>
<path d="M3910 610 l0 -49 -29 17 c-63 36 -127 -28 -118 -118 8 -75 81 -116
130 -73 15 13 21 15 24 6 3 -7 16 -13 29 -13 l24 0 0 140 0 140 -30 0 c-29 0
-30 -1 -30 -50z m-3 -101 c16 -33 0 -85 -27 -94 -47 -15 -82 43 -60 99 8 23
15 27 42 24 24 -2 36 -10 45 -29z"/>
<path d="M4360 520 l0 -140 24 0 c23 0 25 5 28 48 l3 47 56 5 c76 7 99 28 99
91 0 70 -28 89 -131 89 l-79 0 0 -140z m146 79 c36 -30 -7 -84 -63 -77 -24 3
-28 8 -31 36 -5 54 3 65 44 59 20 -3 42 -11 50 -18z"/>
<path d="M4850 520 l0 -140 25 0 25 0 0 140 0 140 -25 0 -25 0 0 -140z"/>
<path d="M5190 640 c0 -15 7 -20 25 -20 18 0 25 5 25 20 0 15 -7 20 -25 20
-18 0 -25 -5 -25 -20z"/>
<path d="M6080 520 l0 -140 24 0 c23 0 25 5 28 48 l3 47 59 5 c45 4 62 11 77
29 31 38 21 106 -20 138 -9 7 -48 12 -93 13 l-78 0 0 -140z m131 90 c23 -13
26 -62 5 -79 -8 -7 -30 -11 -48 -9 -29 3 -33 7 -36 36 -2 19 -1 40 2 48 6 16
49 18 77 4z"/>
<path d="M6570 520 l0 -140 25 0 c14 0 25 5 25 12 0 6 7 4 18 -5 40 -37 102
-12 122 49 32 95 -44 186 -115 140 l-25 -16 0 50 c0 47 -2 50 -25 50 l-25 0 0
-140z m138 -27 c2 -23 -2 -51 -8 -63 -12 -22 -49 -27 -68 -8 -13 13 -17 100
-5 112 4 4 23 6 43 4 33 -3 35 -5 38 -45z"/>
<path d="M6810 520 l0 -140 25 0 25 0 0 140 0 140 -25 0 -25 0 0 -140z"/>
<path d="M6910 641 c0 -17 6 -21 31 -21 24 0 30 4 27 18 -2 10 -14 18 -31 20
-22 3 -27 -1 -27 -17z"/>
<path d="M5070 610 c0 -20 -5 -30 -15 -30 -8 0 -15 -7 -15 -15 0 -8 7 -15 15
-15 12 0 15 -16 15 -80 0 -68 3 -81 19 -90 33 -17 61 -12 61 10 0 11 -7 20
-15 20 -12 0 -15 14 -15 70 0 56 3 70 15 70 8 0 15 7 15 15 0 8 -7 15 -15 15
-10 0 -15 10 -15 30 0 25 -4 30 -25 30 -21 0 -25 -5 -25 -30z"/>
<path d="M4054 574 c-71 -35 -73 -146 -4 -187 42 -25 93 -22 129 9 17 14 31
30 31 35 0 15 -50 10 -66 -6 -22 -22 -60 -18 -78 7 -9 12 -16 26 -16 30 0 5
36 8 80 8 88 0 95 7 68 65 -23 50 -87 68 -144 39z m89 -46 l22 -23 -33 -3
c-18 -2 -45 -2 -60 0 l-27 3 23 23 c12 12 29 22 37 22 8 0 25 -10 38 -22z"/>
<path d="M4654 580 c-51 -20 -70 -100 -39 -160 19 -37 43 -50 92 -50 80 1 127
86 91 165 -21 46 -89 67 -144 45z m87 -51 c36 -36 12 -119 -34 -119 -55 0 -81
92 -35 124 30 21 44 20 69 -5z"/>
<path d="M5340 578 c-14 -7 -33 -30 -43 -50 -36 -73 9 -158 83 -158 43 0 90
32 90 61 0 27 -46 26 -53 -1 -7 -27 -53 -27 -67 -1 -35 67 17 153 64 105 9 -8
28 -14 43 -12 l27 3 -25 28 c-28 33 -82 44 -119 25z"/>
<path d="M5536 567 c-14 -14 -26 -31 -26 -37 0 -16 39 -12 57 6 21 21 58 14
58 -11 0 -16 -9 -21 -44 -26 -54 -7 -85 -40 -76 -78 12 -50 63 -66 110 -35 15
10 25 12 25 5 0 -6 11 -11 25 -11 25 0 25 1 25 79 0 98 -14 121 -82 128 -40 5
-50 2 -72 -20z m87 -148 c-17 -17 -51 -18 -64 -2 -18 21 0 47 37 53 25 5 29 2
32 -19 2 -13 0 -27 -5 -32z"/>
<path d="M5755 565 c-46 -45 -31 -78 46 -103 62 -20 73 -45 21 -50 -22 -2 -34
2 -38 12 -9 23 -54 21 -54 -3 0 -25 21 -41 64 -48 68 -11 116 16 116 66 0 36
-18 51 -78 66 -27 7 -47 18 -47 26 0 19 33 24 60 9 12 -6 33 -10 46 -8 l24 3
-27 28 c-37 37 -98 38 -133 2z"/>
<path d="M7041 561 c-27 -25 -31 -36 -31 -82 0 -68 34 -109 91 -109 40 0 84
28 92 60 4 16 0 20 -19 20 -13 0 -28 -9 -34 -20 -14 -26 -56 -26 -70 -1 -12
23 -13 81 -2 97 13 20 49 26 65 9 9 -8 27 -15 42 -15 25 0 25 1 11 29 -26 50
-98 56 -145 12z"/>
<path d="M7270 577 c-32 -16 -40 -57 -12 -57 11 0 25 7 32 15 16 20 59 19 67
-1 8 -21 -13 -34 -54 -34 -41 0 -73 -30 -73 -68 0 -54 60 -80 108 -46 12 8 22
10 22 5 0 -6 11 -11 25 -11 25 0 25 1 25 90 0 89 0 90 -30 105 -35 18 -76 19
-110 2z m90 -127 c0 -24 -41 -53 -64 -44 -19 7 -22 50 -3 57 6 3 24 6 40 6 20
1 27 -4 27 -19z"/>
<path d="M7475 565 c-14 -13 -25 -31 -25 -38 0 -27 34 -54 83 -67 35 -9 47
-17 47 -31 0 -15 -7 -19 -35 -19 -22 0 -38 6 -41 15 -8 19 -54 20 -54 1 0 -27
50 -56 97 -56 49 0 93 33 93 69 0 27 -45 60 -92 67 -28 5 -38 11 -38 25 0 14
7 19 29 19 17 0 33 -4 36 -10 8 -13 55 -13 55 -1 0 5 -12 19 -26 30 -38 30
-98 28 -129 -4z"/>
<path d="M4960 480 l0 -100 25 0 25 0 0 100 0 100 -25 0 -25 0 0 -100z"/>
<path d="M5190 480 l0 -100 25 0 25 0 0 100 0 100 -25 0 -25 0 0 -100z"/>
<path d="M6330 495 c0 -72 3 -88 20 -105 24 -24 57 -26 87 -5 14 10 24 12 28
5 3 -5 15 -10 26 -10 18 0 19 8 19 100 0 100 0 100 -25 100 -23 0 -24 -3 -27
-76 -2 -60 -7 -79 -20 -88 -13 -8 -23 -8 -35 0 -14 9 -19 28 -21 88 -3 73 -4
76 -27 76 -25 0 -25 -1 -25 -85z"/>
<path d="M6910 480 l0 -100 30 0 30 0 0 100 0 100 -30 0 -30 0 0 -100z"/>
</g>
</svg>
