<?xml version="1.0" standalone="no"?>
<!DOCTYPE svg PUBLIC "-//W3C//DTD SVG 20010904//EN"
 "http://www.w3.org/TR/2001/REC-SVG-20010904/DTD/svg10.dtd">
<svg version="1.0" xmlns="http://www.w3.org/2000/svg"
 width="4741.000000pt" height="2482.000000pt" viewBox="0 0 4741.000000 2482.000000"
 preserveAspectRatio="xMidYMid meet">

<g transform="translate(0.000000,2482.000000) scale(0.100000,-0.100000)"
fill="#000000" stroke="none">
<path d="M20715 7673 c-75 -27 -141 -69 -172 -110 l-28 -36 -3 -1881 c-2
-1306 1 -1907 8 -1966 36 -278 138 -500 306 -661 117 -111 240 -181 418 -238
182 -58 299 -73 613 -78 325 -6 352 -1 426 70 70 69 92 125 92 237 0 84 -3
101 -27 145 -32 61 -80 108 -133 131 -33 15 -86 19 -310 25 -225 6 -284 11
-354 28 -159 40 -254 112 -312 235 -65 139 -62 89 -66 1309 l-4 1107 526 0
c584 0 564 -2 627 68 86 95 88 271 5 384 -49 66 -17 62 -612 68 l-540 5 -5
507 -5 506 -31 39 c-19 23 -60 53 -108 78 -70 36 -84 39 -169 42 -69 3 -104
-1 -142 -14z"/>
<path d="M29290 7674 c-114 -31 -203 -102 -255 -206 -31 -63 -35 -79 -35 -149
0 -103 26 -172 91 -243 99 -108 202 -151 348 -144 70 3 99 10 152 35 79 37
158 114 196 192 25 50 28 67 28 156 0 90 -3 105 -28 154 -35 65 -109 141 -168
172 -97 49 -221 62 -329 33z"/>
<path d="M18490 6549 c-181 -21 -349 -68 -490 -139 -281 -141 -495 -432 -556
-757 -23 -124 -15 -387 15 -491 48 -164 121 -284 243 -397 183 -169 307 -224
929 -409 217 -64 337 -113 455 -187 198 -124 288 -261 301 -459 10 -148 -35
-266 -139 -366 -71 -69 -121 -99 -226 -133 -124 -42 -250 -55 -460 -48 -250 8
-356 35 -577 142 -79 39 -166 92 -222 134 -111 85 -161 111 -209 111 -141 0
-265 -232 -209 -391 38 -107 167 -222 361 -321 272 -139 557 -201 934 -201
266 -1 446 25 640 91 184 63 315 144 445 276 183 187 265 405 265 706 0 136
-18 264 -51 370 -78 251 -275 473 -535 603 -81 41 -340 130 -529 182 -71 19
-173 47 -225 61 -232 64 -453 179 -534 277 -19 24 -48 70 -63 103 -24 53 -27
70 -27 164 0 118 13 167 72 264 131 218 378 321 721 302 194 -10 304 -41 636
-177 145 -59 186 -64 251 -31 105 54 199 261 165 365 -17 51 -105 129 -201
177 -168 84 -434 156 -669 180 -119 12 -402 11 -511 -1z"/>
<path d="M23966 6544 c-338 -52 -624 -201 -881 -459 -208 -208 -342 -431 -409
-684 -45 -166 -48 -228 -44 -851 l4 -585 26 -105 c75 -299 232 -561 468 -783
287 -270 582 -405 959 -437 274 -24 546 27 796 151 151 74 280 166 413 294
275 264 426 533 489 875 16 84 18 162 18 650 0 625 -3 652 -75 871 -45 135
-81 211 -158 329 -221 341 -577 604 -947 699 -196 51 -467 65 -659 35z m464
-619 c89 -23 232 -93 310 -153 116 -87 243 -240 307 -367 37 -73 71 -190 83
-286 8 -65 10 -244 8 -579 -5 -556 -5 -560 -98 -745 -59 -120 -125 -209 -221
-299 -180 -170 -365 -246 -600 -246 -266 0 -455 84 -650 288 -112 117 -179
224 -225 359 -50 150 -56 234 -51 773 3 449 5 480 26 560 76 297 342 589 615
676 43 13 102 29 130 34 75 13 290 5 366 -15z"/>
<path d="M27917 6544 c-332 -60 -624 -278 -844 -630 -9 -15 -12 26 -12 198 -1
127 -5 228 -12 245 -15 41 -67 91 -124 121 -65 34 -212 43 -297 18 -80 -23
-149 -72 -175 -126 l-23 -44 0 -1711 c0 -1644 1 -1712 19 -1750 25 -54 74 -98
146 -132 54 -25 71 -28 165 -28 99 0 110 2 171 32 77 38 143 104 158 159 7 27
11 355 11 1024 0 807 3 1002 15 1080 39 262 136 460 314 643 137 141 287 233
456 278 68 19 118 23 325 28 275 7 293 11 360 87 57 66 75 117 75 219 0 79 -3
97 -28 145 -36 69 -81 117 -132 141 -35 16 -66 18 -265 18 -147 -1 -252 -6
-303 -15z"/>
<path d="M29285 6497 c-116 -39 -177 -94 -195 -179 -8 -39 -10 -502 -8 -1738
l3 -1685 22 -41 c88 -165 379 -205 547 -77 27 21 60 58 73 82 l23 44 0 1712 0
1712 -23 44 c-25 48 -94 101 -155 120 -57 18 -240 21 -287 6z"/>
</g>
</svg>
