<?xml version="1.0" standalone="no"?>
<!DOCTYPE svg PUBLIC "-//W3C//DTD SVG 20010904//EN"
 "http://www.w3.org/TR/2001/REC-SVG-20010904/DTD/svg10.dtd">
<svg version="1.0" xmlns="http://www.w3.org/2000/svg"
 width="200.000000pt" height="200.000000pt" viewBox="0 0 200.000000 200.000000"
 preserveAspectRatio="xMidYMid meet">

<g transform="translate(0.000000,200.000000) scale(0.100000,-0.100000)"
fill="#000000" stroke="none">
<path d="M0 1000 l0 -1000 1001 0 1001 0 -5 368 c-3 202 -9 383 -14 402 l-9
35 -8 -29 c-5 -21 -10 -26 -18 -18 -8 8 -14 7 -23 -4 -6 -10 -30 -16 -60 -18
-28 -2 -57 -6 -65 -9 -22 -10 -369 -23 -363 -14 2 4 0 7 -4 7 -12 0 -35 -39
-28 -50 3 -5 0 -12 -6 -16 -7 -4 -9 -3 -5 4 4 7 -6 9 -28 8 -32 -3 -33 -2 -27
23 7 26 51 44 51 22 0 -6 5 -11 11 -11 8 0 8 5 -1 15 -17 20 -50 19 -66 -2
-12 -17 -13 -17 -14 -1 0 12 -16 21 -53 32 -97 27 -134 36 -156 36 -12 0 -33
7 -46 16 -14 9 -47 17 -75 17 -42 2 -47 4 -28 12 13 5 37 23 53 38 17 16 24
26 16 22 -7 -4 -28 -11 -45 -15 -42 -9 -82 21 -101 76 -12 34 -14 36 -15 12 0
-15 5 -30 10 -33 6 -4 9 -14 8 -23 -2 -9 3 -17 10 -17 8 0 19 -8 26 -18 7 -9
24 -17 37 -17 18 0 20 -3 10 -9 -17 -11 -41 -4 -58 16 -6 8 -16 12 -22 8 -6
-3 -22 6 -35 20 -14 15 -30 24 -36 20 -6 -3 -23 5 -38 19 -25 24 -63 49 -119
78 -13 6 -23 16 -23 23 0 6 -21 24 -47 41 -61 37 -221 197 -253 252 -13 23
-29 42 -35 42 -8 1 -28 27 -97 134 -4 6 -9 22 -12 36 -3 14 -17 37 -30 52 -14
14 -28 39 -32 55 -4 15 -10 33 -14 38 -4 6 -10 22 -14 37 -3 15 -12 33 -20 40
-7 8 -23 49 -34 91 -16 64 -17 77 -5 77 8 0 11 5 8 10 -4 6 -10 8 -15 5 -9 -6
-20 18 -20 46 0 10 -4 19 -10 19 -7 0 -10 -340 -10 -1000z m1161 -293 c-13
-13 -26 -3 -16 12 3 6 11 8 17 5 6 -4 6 -10 -1 -17z m102 16 c3 -5 -8 -8 -23
-8 -15 0 -26 3 -23 8 2 4 13 7 23 7 10 0 21 -3 23 -7z m-385 -41 c3 -29 6 -32
38 -32 27 0 34 -4 34 -20 0 -16 -7 -20 -35 -20 l-35 0 0 -75 0 -74 33 -9 c45
-12 42 -36 -5 -40 -27 -2 -43 3 -57 17 -19 19 -21 33 -21 149 0 71 3 132 7
136 16 16 38 -1 41 -32z m407 -22 c-3 -5 3 -10 14 -10 11 0 23 -5 26 -10 5 -8
11 -7 21 1 7 6 21 9 29 5 12 -4 15 -27 15 -121 0 -115 0 -116 -22 -113 -22 3
-23 9 -28 105 -4 88 -7 101 -20 93 -8 -5 -25 -10 -37 -10 -37 0 -53 -36 -53
-118 0 -70 -1 -73 -22 -70 -22 3 -23 8 -26 111 -1 59 1 115 6 124 8 14 11 14
30 -5 l20 -20 23 24 c23 25 35 32 24 14z m151 -5 c-1 -8 -5 -17 -8 -21 -5 -4
-4 16 1 34 3 9 9 -1 7 -13z m-650 -19 c26 -20 10 -31 -44 -31 -40 0 -47 -3
-50 -22 -3 -17 5 -24 35 -33 52 -17 73 -38 73 -73 0 -46 -25 -67 -80 -67 -53
0 -86 19 -77 44 6 15 9 15 36 1 22 -11 36 -12 56 -5 39 15 28 41 -24 61 -73
27 -91 70 -46 114 28 29 89 34 121 11z m335 -15 c26 -26 29 -36 29 -93 0 -58
-3 -67 -29 -92 -47 -45 -122 -35 -152 21 -13 24 -17 80 -9 135 3 15 6 25 8 23
3 -2 16 5 30 15 37 30 88 26 123 -9z"/>
<path d="M1010 576 c-14 -27 -8 -89 11 -112 15 -18 53 -18 68 0 21 26 25 83 7
111 -22 34 -68 34 -86 1z"/>
<path d="M1136 925 c-11 -8 -16 -15 -10 -15 5 0 18 7 28 15 11 8 16 15 10 15
-5 0 -18 -7 -28 -15z"/>
</g>
</svg>
