<?xml version="1.0" standalone="no"?>
<!DOCTYPE svg PUBLIC "-//W3C//DTD SVG 20010904//EN"
 "http://www.w3.org/TR/2001/REC-SVG-20010904/DTD/svg10.dtd">
<svg version="1.0" xmlns="http://www.w3.org/2000/svg"
 width="170.000000pt" height="170.000000pt" viewBox="0 0 170.000000 170.000000"
 preserveAspectRatio="xMidYMid meet">

<g transform="translate(0.000000,170.000000) scale(0.100000,-0.100000)"
fill="#000000" stroke="none">
<path d="M0 850 l0 -850 850 0 850 0 0 850 0 850 -850 0 -850 0 0 -850z m1012
513 c44 -44 51 -122 16 -173 -23 -34 -62 -53 -293 -143 -5 -2 44 -21 110 -41
212 -65 347 -115 382 -142 19 -14 50 -50 70 -80 33 -50 37 -63 41 -139 4 -72
1 -90 -18 -130 -12 -26 -30 -49 -39 -52 -9 -3 -34 -13 -56 -23 -22 -10 -65
-27 -95 -38 -30 -11 -111 -44 -180 -72 -171 -72 -230 -69 -280 13 -35 56 -22
125 32 173 12 11 68 38 123 58 55 21 111 43 125 48 l25 10 -25 10 c-14 5 -106
35 -205 65 -99 31 -198 64 -220 75 -58 29 -129 107 -149 164 -31 93 -13 221
38 264 10 8 115 54 235 102 198 80 221 87 274 85 49 -3 63 -8 89 -34z"/>
</g>
</svg>
