<?xml version="1.0" standalone="no"?>
<!DOCTYPE svg PUBLIC "-//W3C//DTD SVG 20010904//EN"
 "http://www.w3.org/TR/2001/REC-SVG-20010904/DTD/svg10.dtd">
<svg version="1.0" width="56" height="56" xmlns="http://www.w3.org/2000/svg"
 viewBox="0 0 192.000000 192.000000"
 preserveAspectRatio="xMidYMid meet">

<g transform="translate(0.000000,192.000000) scale(0.100000,-0.100000)"
fill="#000000" stroke="none">
<path d="M631 1760 c-18 -4 -45 -17 -59 -27 -14 -11 -105 -120 -201 -244
l-175 -224 -4 -60 c-5 -71 -26 -38 206 -307 84 -98 157 -178 162 -178 9 0 150
109 150 116 0 3 -70 86 -155 185 l-156 179 122 158 c67 86 134 169 147 185
l26 27 266 0 266 0 26 -27 c13 -16 80 -99 147 -185 67 -87 127 -158 132 -158
16 0 148 103 148 115 -1 22 -316 410 -349 429 -33 20 -52 21 -350 23 -173 1
-330 -2 -349 -7z"/>
<path d="M1235 1259 c-38 -27 -71 -54 -73 -59 -2 -6 245 -337 350 -467 7 -9
-34 -66 -139 -195 l-149 -183 -284 -3 -285 -2 -144 181 c-79 99 -150 183 -157
186 -14 5 -154 -96 -153 -112 1 -20 325 -410 355 -427 29 -17 63 -18 382 -19
297 0 356 2 381 15 17 9 104 107 195 220 223 276 219 268 214 337 -4 55 -6 58
-204 314 -110 142 -204 260 -209 261 -6 2 -41 -19 -80 -47z"/>
<path d="M908 1068 c-2 -41 -7 -63 -15 -64 -7 -1 -35 -2 -63 -3 l-50 -1 0 -40
0 -39 63 -3 62 -3 3 -62 3 -63 49 0 50 0 0 65 0 65 66 0 65 0 -3 42 -3 42 -62
-3 -63 -2 0 65 0 66 -50 0 -49 0 -3 -62z"/>
</g>
</svg>
